<?xml version="1.0" encoding="utf-8"?>
<!-- Generator: Adobe Illustrator 22.1.0, SVG Export Plug-In . SVG Version: 6.00 Build 0)  -->
<svg version="1.1" id="UX___________SF_1_" xmlns="http://www.w3.org/2000/svg" xmlns:xlink="http://www.w3.org/1999/xlink" x="0px"
	 y="0px" viewBox="0 0 336.9 263.5" style="enable-background:new 0 0 336.9 263.5;" xml:space="preserve">
<style type="text/css">
	.st0{fill-rule:evenodd;clip-rule:evenodd;fill:#FFFFFF;}
</style>
<g id="UX___________SF">
	<g>
		<path class="st0" d="M82.6,0H64.2c-1.6,0-2.8,1.3-2.8,2.8v60.7c0,10.5-7.9,18.9-18.7,18.9c-10.6,0-18.4-8.4-18.4-18.9V2.8
			c0-1.5-1.2-2.8-2.8-2.8H2.8C1.3,0,0,1.3,0,2.8v61.9c0,22.8,19,41.7,42.6,41.7c23.7,0,42.9-18.9,42.9-41.7V2.8
			C85.5,1.3,84.1,0,82.6,0z M190.8,100.8l-31.5-49.6l30.4-46.9c1.3-1.9,0-4.2-2.5-4.2h-21.9c-1,0-2.1,0.8-2.4,1.3l-17.5,27.9h-0.1
			L127.9,1.3c-0.5-0.6-1.3-1.3-2.4-1.3h-21.9c-2.5,0-3.7,2.2-2.5,4.2l30.3,46.9l-31.5,49.6c-1.3,1.9,0,4.2,2.5,4.2h20.8
			c1.2,0,2.1-0.7,2.5-1.3L145,73.3h0.3l19.6,30.3c0.5,0.7,1.6,1.3,2.5,1.3h20.8C190.8,105,192.1,102.9,190.8,100.8z M220.5,198.2
			c-11.8-4.8-16.3-9-16.3-14.5c0-4,4-7.6,9.4-7.6c9.1,0,20.1,8.2,21.4,9c1.3,1,4-0.3,5.1-1.9l7.6-11.5c0.6-1,0.9-3.7-0.9-4.8
			c-4.5-3.3-16.5-11.2-32.1-11.2c-23.1,0-34.6,15-34.6,29.8c0,18,16.2,28,29.1,33.1c10.2,4,15.4,8.8,15.4,15.1c0,5.2-4.3,9-10.3,9
			c-9.9,0-20.7-7.9-21.3-8.2c-1.1-0.7-3.9-1-5.1,0.9l-7,12.4c-1.2,2.1-0.7,2.7,0.7,4.2c3.4,3.4,14.2,11.5,33.7,11.5
			c22,0,35.4-15.6,35.4-31C250.8,212,232.2,202.9,220.5,198.2z M334,157h-62.1c-1.6,0-2.8,1.3-2.8,2.8v99.3c0,1.5,1.2,2.8,2.8,2.8
			h17.7c1.5,0,2.8-1.3,2.8-2.8v-36.4h34.2c1.5,0,2.8-1.3,2.8-2.8v-16.3c0-1.5-1.3-2.8-2.8-2.8h-34.2V179H334c1.7,0,2.8-1.3,2.8-2.8
			v-16.3C336.9,158.3,335.7,157,334,157z"/>
	</g>
</g>
</svg>
