<svg xmlns="http://www.w3.org/2000/svg" width="259.562" height="229.969" viewBox="0 0 259.562 229.969">
  <metadata><?xpacket begin="﻿" id="W5M0MpCehiHzreSzNTczkc9d"?>
<x:xmpmeta xmlns:x="adobe:ns:meta/" x:xmptk="Adobe XMP Core 5.6-c138 79.159824, 2016/09/14-01:09:01        ">
   <rdf:RDF xmlns:rdf="http://www.w3.org/1999/02/22-rdf-syntax-ns#">
      <rdf:Description rdf:about=""/>
   </rdf:RDF>
</x:xmpmeta>





















<?xpacket end="w"?></metadata>
<defs>
    <style>
      .cls-1 {
        fill: #fff;
        fill-rule: evenodd;
      }
    </style>
  </defs>
  <path id="UX_BErkeley" data-name="UX BErkeley" class="cls-1" d="M128.9,225.791c0,30.4,25.4,55.6,56.8,55.6,31.6,0,57.2-25.2,57.2-55.6v-82.6a3.934,3.934,0,0,0-3.8-3.8H214.5a3.8,3.8,0,0,0-3.8,3.8v81c0,14-10.6,25.2-25,25.2-14.2,0-24.6-11.2-24.6-25.2v-81a3.8,3.8,0,0,0-3.8-3.8H132.7a3.934,3.934,0,0,0-3.8,3.8v82.6Zm133.2,48c-1.8,2.6,0,5.6,3.4,5.6h27.8a4.382,4.382,0,0,0,3.4-1.8l25.6-40.4h0.4l26.2,40.4a4.454,4.454,0,0,0,3.4,1.8h27.8c3.2,0,5-2.8,3.2-5.6l-42-66.2,40.6-62.6c1.8-2.6,0-5.6-3.4-5.6H349.3a3.974,3.974,0,0,0-3.2,1.8l-23.4,37.2h-0.2l-23-37.2a4.314,4.314,0,0,0-3.2-1.8H267.1c-3.4,0-5,3-3.4,5.6l40.4,62.6ZM124.451,368.44a0.949,0.949,0,0,0,.95.95h12.4c5.95,0,10.9-4.05,10.9-9.651,0-4.6-4.05-7.05-6.7-8.15,2.35-1.25,5.8-4.05,5.8-7.9,0-5.25-4.85-9.3-10.75-9.3H125.4a0.949,0.949,0,0,0-.95.95v33.1Zm7.8-19.851v-7h3.9a3.4,3.4,0,0,1,3.5,3.4,3.565,3.565,0,0,1-3.5,3.6h-3.9Zm0,13.651v-7.151H136.3c1.95,0,4.1,1.5,4.1,3.5a3.629,3.629,0,0,1-3.6,3.651h-4.551Zm25.8,6.2a0.949,0.949,0,0,0,.95.95h20.7a0.949,0.949,0,0,0,.95-0.95v-5.45a0.949,0.949,0,0,0-.95-0.95H165.851v-6.751h11.4a0.949,0.949,0,0,0,.95-0.95v-5.45a0.983,0.983,0,0,0-.95-0.95h-11.4v-6.2H179.7a0.949,0.949,0,0,0,.95-0.95v-5.45a0.949,0.949,0,0,0-.95-0.95H159a0.949,0.949,0,0,0-.95.95v33.1Zm32.3,0a0.949,0.949,0,0,0,.95.95h5.95a0.983,0.983,0,0,0,.95-0.95V355.689h3.45L208.3,368.94a0.921,0.921,0,0,0,.8.45h6.65a0.946,0.946,0,0,0,.85-1.45l-6.85-12.7c4.35-1.75,7.4-5.45,7.4-10.05a10.873,10.873,0,0,0-10.9-10.8H191.3a0.949,0.949,0,0,0-.95.95v33.1Zm7.85-19.1v-7.8h7.4a3.831,3.831,0,0,1,3.8,3.8,4.009,4.009,0,0,1-3.8,4h-7.4Zm28.65,18.851a1.184,1.184,0,0,0,1.2,1.2h5.85a1.217,1.217,0,0,0,1.2-1.2v-14.9l11.551,15.7a1.368,1.368,0,0,0,.9.35h6.9a1.174,1.174,0,0,0,.95-1.85l-12.75-16.6,11.7-14.651a1.156,1.156,0,0,0-.9-1.85h-6.3a1.484,1.484,0,0,0-.95.5l-11.1,13.851V335.588a1.217,1.217,0,0,0-1.2-1.2h-5.85a1.184,1.184,0,0,0-1.2,1.2v32.6Zm36.649,0.25a0.949,0.949,0,0,0,.95.95h20.7a0.95,0.95,0,0,0,.951-0.95v-5.45a0.95,0.95,0,0,0-.951-0.95H271.3v-6.751h11.4a0.949,0.949,0,0,0,.95-0.95v-5.45a0.983,0.983,0,0,0-.95-0.95H271.3v-6.2h13.85a0.95,0.95,0,0,0,.951-0.95v-5.45a0.95,0.95,0,0,0-.951-0.95h-20.7a0.949,0.949,0,0,0-.95.95v33.1Zm32.3,0a0.949,0.949,0,0,0,.95.95h18.8a0.949,0.949,0,0,0,.95-0.95v-5.45a0.949,0.949,0,0,0-.95-0.95h-11.9v-26.7a0.983,0.983,0,0,0-.95-0.95H296.75a0.949,0.949,0,0,0-.95.95v33.1Zm28.549,0a0.949,0.949,0,0,0,.95.95H346a0.949,0.949,0,0,0,.95-0.95v-5.45a0.949,0.949,0,0,0-.95-0.95H332.15v-6.751h11.4a0.949,0.949,0,0,0,.95-0.95v-5.45a0.983,0.983,0,0,0-.95-0.95h-11.4v-6.2H346a0.949,0.949,0,0,0,.95-0.95v-5.45a0.949,0.949,0,0,0-.95-0.95H325.3a0.949,0.949,0,0,0-.95.95v33.1Zm38.751,0a0.949,0.949,0,0,0,.95.95H370a0.983,0.983,0,0,0,.95-0.95V352.489l11.2-16.651a0.926,0.926,0,0,0-.8-1.45h-6.5a0.921,0.921,0,0,0-.8.45l-6.95,10.251-6.95-10.251a0.994,0.994,0,0,0-.8-0.45h-6.5a0.926,0.926,0,0,0-.8,1.45l11.051,16.7v15.9Z" transform="translate(-124.438 -139.406)"/>
</svg>
